<svg width="75" height="74" viewBox="0 0 75 74" fill="none" xmlns="http://www.w3.org/2000/svg">
<path d="M11.7324 51.417C11.4814 50.886 11.11 50.42 10.6472 50.0555C10.1844 49.6911 9.64292 49.4381 9.06516 49.3164L8.73333 50.6145C9.12512 50.6966 9.4936 50.8643 9.81209 51.1054C10.1306 51.3464 10.3911 51.6548 10.5748 52.0081C10.7382 52.3309 10.8321 52.684 10.8504 53.0448C10.8687 53.4056 10.8111 53.7662 10.6812 54.1037C10.4288 54.7279 9.95602 55.2394 9.35139 55.5426C7.97347 56.2445 6.42331 55.7766 5.74702 54.4684C5.56685 54.1192 5.46931 53.7337 5.46185 53.3413C5.45439 52.949 5.53718 52.5601 5.70395 52.2044L4.3539 51.7893C3.90304 52.9616 4.0246 53.9628 4.58945 55.0596C4.82414 55.5317 5.15181 55.9522 5.55303 56.2963C5.95425 56.6404 6.42089 56.9011 6.92534 57.063C7.42978 57.2248 7.96178 57.2845 8.48987 57.2385C9.01796 57.1926 9.53138 57.0419 9.9998 56.7954C10.4795 56.5664 10.9071 56.2427 11.2565 55.844C11.6059 55.4453 11.8698 54.98 12.0319 54.4766C12.1941 53.9732 12.2512 53.4422 12.1996 52.9161C12.1481 52.39 11.9891 51.8799 11.7324 51.417Z" fill="white"/>
<path d="M23.4411 65.1269L24.0693 71.8587L28.4437 65.0086L27.2583 64.4225L25.0116 68.0651L24.5303 62.981L20.1559 65.6652L21.7289 61.6905L20.5511 61.1094L17.6686 68.6965L23.4411 65.1269Z" fill="white"/>
<path d="M11.7529 63.9534C12.1652 64.2885 12.6417 64.5372 13.1534 64.6847C13.6651 64.8321 14.2016 64.8751 14.7305 64.8112C15.2594 64.7472 15.7698 64.5777 16.231 64.3127C16.6921 64.0477 17.0946 63.6927 17.414 63.2692C17.7428 62.8541 17.9849 62.3781 18.1262 61.8689C18.2675 61.3598 18.3053 60.8278 18.2371 60.304C18.1689 59.7803 17.9963 59.2753 17.7293 58.8186C17.4622 58.3618 17.1062 57.9626 16.682 57.6442C16.2658 57.3138 15.7875 57.0692 15.275 56.9246C14.7625 56.7801 14.2261 56.7386 13.6973 56.8026C13.1684 56.8666 12.6577 57.0347 12.1951 57.2971C11.7325 57.5595 11.3273 57.911 11.0031 58.331C10.6683 58.744 10.4213 59.2203 10.2773 59.731C10.1333 60.2416 10.0951 60.776 10.1652 61.3017C10.2353 61.8274 10.4122 62.3335 10.6851 62.7893C10.958 63.2451 11.3213 63.6412 11.7529 63.9534ZM15.8841 58.6706C16.1623 58.8864 16.3941 59.1554 16.5658 59.4618C16.7374 59.7681 16.8454 60.1055 16.8835 60.4541C16.9215 60.8026 16.8887 61.1552 16.7871 61.491C16.6855 61.8267 16.5171 62.1388 16.2919 62.4088C16.084 62.6911 15.8213 62.9291 15.5193 63.109C15.2173 63.2888 14.8821 63.4068 14.5334 63.4561C14.1848 63.5053 13.8298 63.4847 13.4893 63.3956C13.1487 63.3065 12.8297 63.1506 12.5508 62.9371C12.2724 62.7217 12.0402 62.4533 11.8677 62.1476C11.6952 61.8419 11.5859 61.5051 11.5463 61.1569C11.5066 60.8087 11.5374 60.4561 11.6368 60.1199C11.7362 59.7836 11.9023 59.4705 12.1252 59.1989C12.334 58.9147 12.5979 58.675 12.9015 58.4939C13.205 58.3127 13.542 58.1938 13.8926 58.1441C14.2432 58.0943 14.6003 58.1149 14.9428 58.2044C15.2852 58.294 15.6061 58.4508 15.8866 58.6655L15.8841 58.6706Z" fill="white"/>
<path d="M0.96011 44.9488L5.30157 47.0972L8.45001 43.0218L8.02701 41.4219L4.86843 45.5676L0.542175 43.369L0.96011 44.9488Z" fill="white"/>
<path d="M2.11279 49.3261L9.59509 47.3765L9.25061 46.0684L5.29923 47.0973L1.76831 48.018L2.11279 49.3261Z" fill="white"/>
<path d="M3.65943 36.4568C3.50528 36.1306 3.25408 35.8592 2.93974 35.6793C2.62539 35.4993 2.26302 35.4195 1.90155 35.4505C0.706003 35.4858 -0.0437464 36.4191 0.00184644 37.9788L0.0677053 40.1472L7.80077 39.9234L7.73238 37.6593C7.68425 35.9814 6.82306 35.0606 5.48566 35.1009C5.07442 35.0998 4.67393 35.2314 4.34454 35.476C4.01516 35.7205 3.77473 36.0647 3.65943 36.4568ZM1.17713 38.7561L1.15181 37.9058C1.12901 37.136 1.63559 36.7612 2.15231 36.7461C2.29694 36.7426 2.44078 36.7685 2.57501 36.8221C2.70925 36.8757 2.83108 36.9559 2.93303 37.0579C3.03498 37.1598 3.11489 37.2814 3.16793 37.415C3.22096 37.5487 3.24601 37.6918 3.24148 37.8354L3.26681 38.6957L1.17713 38.7561ZM6.55963 37.6794L6.58749 38.6001L4.40409 38.663L4.37624 37.7322C4.35091 36.8568 4.85495 36.4216 5.44259 36.404C6.03023 36.3864 6.5343 36.8065 6.55963 37.6794Z" fill="white"/>
<path d="M3.70158 30.4063L3.60786 30.7686L0.672195 30.029L0.33783 31.3396L7.83789 33.2289L8.2634 31.556C8.63575 30.0969 8.2634 28.7032 6.67271 28.3033C4.97817 27.8756 4.07139 28.9598 3.70158 30.4063ZM7.12612 31.2692L7.03493 31.6314L4.75529 31.0579L4.84901 30.6956C5.12003 29.634 5.76085 29.3976 6.35356 29.546C6.94627 29.6944 7.40221 30.185 7.12612 31.2692Z" fill="white"/>
<path d="M2.0334 24.671L1.70154 25.9707L9.19978 27.8592L9.53164 26.5596L2.0334 24.671Z" fill="white"/>
<path d="M69.6955 37.9872L69.4093 41.894L66.1545 41.6575L66.0532 43.0059L73.7482 43.5644L73.847 42.216L70.6504 41.9845L70.9367 38.0752L74.1332 38.3092L74.232 36.9583L66.5395 36.4023L66.4407 37.7507L69.6955 37.9872Z" fill="white"/>
<path d="M50.2917 66.7378L46.5885 68.0887L45.4639 65.0448L44.1873 65.5102L46.8444 72.7024L48.1235 72.237L47.0191 69.2484L50.7223 67.9001L51.8241 70.8886L53.1033 70.4207L50.4462 63.2285L49.1671 63.6964L50.2917 66.7378Z" fill="white"/>
<path d="M70.3726 23.4043L71.8671 26.7627L73.0044 26.2646L70.9603 21.666L63.9035 24.7603L64.4557 25.9979L70.3726 23.4043Z" fill="white"/>
<path d="M73.0126 33.8608L74.2436 33.6746L73.4558 28.5352L65.8292 29.6848L66.6169 34.8268L67.8352 34.6431L67.2527 30.8395L69.2841 30.5326L69.8135 33.9891L71.0217 33.8079L70.4923 30.3489L72.43 30.0571L73.0126 33.8608Z" fill="white"/>
<path d="M59.4474 55.8786L58.5786 56.9176L64.5183 61.8055L67.5224 58.2056L64.3182 54.5705C64.0519 54.236 63.8664 53.8453 63.7761 53.4284C63.7323 53.0929 63.7933 52.7522 63.9509 52.4523L62.5705 51.9668C62.3716 52.3694 62.2742 52.8141 62.2868 53.2624C62.3324 54.1026 62.8136 54.8925 63.3278 55.4837L65.8076 58.3414L64.4372 59.9841L59.4474 55.8786Z" fill="white"/>
<path d="M59.8384 66.5137L57.9944 57.709L56.89 58.5618L57.2902 60.4259L54.504 62.5767L52.7765 61.739L51.6266 62.6271L59.8384 66.5137ZM57.5714 61.7516L58.1235 64.3377L55.7249 63.1755L57.5714 61.7516Z" fill="white"/>
<path d="M39.7554 74.0003L43.1343 65.666L41.7412 65.7666L41.032 67.5276L37.5112 67.7791L36.5436 66.1314L35.0897 66.2371L39.7554 74.0003ZM40.5153 68.7879L39.53 71.2457L38.185 68.9565L40.5153 68.7879Z" fill="white"/>
<path d="M63.4044 50.7419L70.6182 53.4588L72.9435 47.3634L65.7322 44.6465L65.2535 45.9018L71.3021 48.1784L69.9369 51.7557L63.8882 49.4765L63.4044 50.7419Z" fill="white"/>
<path d="M16.5233 16.1575L17.4453 15.1613L11.5866 9.81055L11.5308 17.5688L7.85049 14.2079L6.9361 15.194L12.7948 20.5448L12.8429 12.7941L16.5233 16.1575Z" fill="white"/>
<path d="M44.6261 8.62046L45.9635 8.86951L47.425 1.09619L40.771 5.16649L41.6904 0.283642L40.3632 0.0371094L38.9017 7.80791L45.543 3.73761L44.6261 8.62046Z" fill="white"/>
<path d="M18.1869 10.5008L21.5279 8.4153L23.2629 11.1599L24.4179 10.4404L20.3121 3.95508L19.1596 4.67455L20.8642 7.3688L17.5258 9.45426L15.8186 6.76001L14.6661 7.47949L18.772 13.9648L19.9245 13.2453L18.1869 10.5008Z" fill="white"/>
<path d="M28.937 9.05403C29.5173 8.94265 30.0636 8.69906 30.533 8.34243C31.0024 7.98579 31.3821 7.52584 31.6422 6.99875L30.4568 6.35978C30.2806 6.71704 30.0268 7.031 29.7136 7.27897C29.4004 7.52694 29.0356 7.70275 28.6457 7.79369C28.2905 7.87194 27.9227 7.87566 27.5659 7.80462C27.2091 7.73358 26.8712 7.58934 26.5738 7.38113C26.0268 6.98586 25.6433 6.40645 25.4947 5.751C25.1477 4.24161 25.9836 2.87311 27.4274 2.54356C27.8106 2.45498 28.2092 2.45425 28.5927 2.54142C28.9763 2.6286 29.3348 2.80139 29.6412 3.04669L30.3757 1.84924C29.3398 1.12725 28.3342 0.998958 27.1336 1.27568C26.6155 1.38585 26.125 1.59802 25.691 1.89965C25.257 2.20129 24.8882 2.58627 24.6065 3.03184C24.3248 3.47742 24.1359 3.97455 24.0509 4.49387C23.9659 5.01319 23.9866 5.54415 24.1118 6.05539C24.2183 6.57176 24.4293 7.06125 24.7321 7.49412C25.0349 7.92699 25.4232 8.29422 25.8733 8.57349C26.3234 8.85276 26.8259 9.03825 27.3504 9.1187C27.8749 9.19914 28.4104 9.17286 28.9244 9.04145" fill="white"/>
<path d="M48.6871 9.95746L49.9257 10.5184L52.6055 4.68217L54.7104 5.6356L55.2322 4.50104L49.7838 2.0332L49.262 3.16776L51.3669 4.12118L48.6871 9.95746Z" fill="white"/>
<path d="M34.7134 7.86137L36.0736 7.78087L35.6987 1.37857L38.0088 1.24524L37.9353 0L31.9576 0.347158L32.0285 1.58988L34.3385 1.45655L34.7134 7.86137Z" fill="white"/>
<path d="M59.2034 17.487L60.0722 18.5285L65.0418 14.433L66.521 16.2015L67.4861 15.4066L63.6613 10.8281L62.6963 11.6256L64.173 13.3916L59.2034 17.487Z" fill="white"/>
<path d="M57.4348 10.8592L57.5286 9.93346L57.8502 6.25308L56.5711 5.30469L56.0873 11.4856L53.5797 12.6478L54.7246 13.4981L62.6755 9.83787L61.5078 8.96997L57.4348 10.8592Z" fill="white"/>
<path d="M49.7235 24.9102H48.3962V49.088H49.7235V24.9102Z" fill="white"/>
<path d="M37.7885 24.9102H36.4612V49.088H37.7885V24.9102Z" fill="white"/>
<path d="M25.8456 24.9102H24.5183V49.088H25.8456V24.9102Z" fill="white"/>
</svg>
